<?xml version="1.0" standalone="no"?>
<!DOCTYPE svg PUBLIC "-//W3C//DTD SVG 20010904//EN"
 "http://www.w3.org/TR/2001/REC-SVG-20010904/DTD/svg10.dtd">
<svg version="1.0" xmlns="http://www.w3.org/2000/svg"
 width="200.000000pt" height="200.000000pt" viewBox="0 0 200.000000 200.000000"
 preserveAspectRatio="xMidYMid meet">
<metadata>
Created by potrace 1.11, written by Peter Selinger 2001-2013
</metadata>
<g transform="translate(0.000000,200.000000) scale(0.100000,-0.100000)"
fill="#000000" stroke="none">
<path d="M630 1560 c-22 -14 -28 -495 -7 -524 13 -18 28 -20 163 -21 l149 -1
1 -52 c0 -50 -4 -57 -33 -53 -6 1 -14 -3 -18 -9 -7 -11 -10 -11 105 -12 136 0
152 1 145 12 -3 6 -17 10 -29 10 -22 0 -24 4 -22 52 l1 53 149 1 c124 1 151 4
161 17 18 25 15 498 -4 520 -12 15 -51 17 -380 17 -213 0 -372 -4 -381 -10z
m753 -27 c3 -10 5 -123 4 -251 -2 -166 -5 -235 -14 -240 -16 -10 -715 -9 -730
1 -10 6 -13 66 -13 242 0 128 3 240 6 249 5 14 48 16 374 16 343 0 369 -1 373
-17z m-318 -571 c0 -28 -4 -53 -10 -55 -5 -2 -30 -3 -55 -3 l-45 1 -1 50 c-1
28 0 53 2 56 2 3 27 5 56 5 l53 -2 0 -52z"/>
<path d="M1047 1410 c-56 -131 -104 -261 -94 -257 14 4 120 265 114 281 -3 6
-12 -5 -20 -24z"/>
<path d="M790 1346 c-41 -24 -75 -47 -77 -53 -2 -5 14 -18 34 -30 21 -11 60
-32 86 -47 27 -15 51 -25 55 -22 7 8 -21 28 -85 61 -29 14 -55 30 -57 34 -3 4
26 24 64 45 38 20 72 41 75 47 13 19 -23 6 -95 -35z"/>
<path d="M1135 1380 c3 -5 38 -26 76 -46 71 -37 71 -38 48 -54 -12 -10 -46
-30 -75 -44 -46 -24 -69 -46 -48 -46 16 0 174 96 171 104 -2 5 -36 28 -77 52
-73 42 -108 54 -95 34z"/>
<path d="M550 627 l0 -193 28 -2 27 -2 -1 70 c-1 39 1 68 4 65 3 -3 17 -33 31
-67 22 -51 30 -62 54 -65 15 -2 27 -2 27 1 0 3 -16 39 -35 81 l-35 77 24 46
c39 79 41 92 13 92 -20 0 -29 -10 -50 -60 -15 -33 -28 -60 -30 -60 -2 0 -3 47
-3 105 l1 105 -27 0 -28 0 0 -193z"/>
<path d="M1230 626 l0 -195 28 2 c27 2 27 3 26 72 l-2 70 34 -72 c29 -62 38
-73 59 -73 14 0 25 2 25 5 0 2 -15 39 -34 82 l-34 77 29 58 c35 69 36 80 7 76
-16 -2 -30 -19 -49 -56 -14 -29 -28 -54 -31 -57 -2 -3 -4 42 -3 100 l1 105
-28 0 -28 0 0 -194z"/>
<path d="M1847 633 c0 -104 1 -191 2 -195 1 -5 12 -8 26 -8 l25 0 0 195 0 195
-27 0 -28 0 2 -187z"/>
<path d="M166 788 c-4 -12 -22 -108 -31 -163 -15 -87 -27 -153 -32 -172 -4
-19 -1 -22 23 -20 23 2 30 8 34 32 4 25 10 31 37 33 29 3 32 0 39 -32 6 -32 9
-36 35 -34 23 2 27 6 24 23 -3 11 -9 47 -15 80 -5 33 -12 71 -15 85 -3 14 -10
52 -15 85 -17 92 -18 95 -51 95 -16 0 -31 -6 -33 -12z m48 -169 c4 -39 5 -73
3 -76 -3 -2 -14 -3 -24 -1 -16 3 -17 9 -10 76 5 39 12 72 17 72 4 0 11 -32 14
-71z"/>
<path d="M330 580 l0 -150 25 0 c29 0 27 -8 29 134 1 93 4 110 19 120 29 18
36 -8 36 -126 -1 -59 2 -111 6 -117 3 -6 15 -11 26 -11 16 0 19 8 20 53 2 92
-2 201 -7 219 -7 24 -49 33 -82 18 -18 -8 -28 -8 -30 -1 -2 6 -12 11 -23 11
-18 0 -19 -9 -19 -150z"/>
<path d="M750 597 c0 -117 2 -136 18 -150 23 -21 51 -22 80 -1 20 14 22 14 22
-1 0 -10 7 -15 18 -13 15 3 17 20 20 151 l3 148 -28 -3 -28 -3 0 -118 c0 -104
-2 -120 -18 -129 -10 -5 -22 -7 -25 -3 -4 4 -8 59 -8 123 -1 64 -2 120 -3 125
-1 4 -12 7 -26 7 l-25 0 0 -133z"/>
<path d="M968 718 c-2 -7 -3 -74 -3 -148 l1 -135 27 -1 27 -1 0 123 c0 79 4
125 11 130 13 8 31 -16 24 -33 -6 -16 9 -25 29 -17 19 7 22 64 4 82 -17 17
-44 15 -62 -4 -15 -14 -16 -14 -16 0 0 19 -36 22 -42 4z"/>
<path d="M1439 709 c-24 -24 -23 -72 2 -77 11 -2 20 8 27 27 18 51 52 35 52
-24 0 -16 -9 -26 -29 -35 -16 -6 -38 -21 -49 -33 -59 -66 -12 -163 63 -129 17
8 25 8 27 0 3 -7 12 -9 21 -5 15 6 17 23 17 135 0 112 -2 131 -18 145 -26 24
-87 22 -113 -4z m81 -178 c0 -39 -20 -68 -40 -56 -16 10 -12 56 7 77 24 27 33
22 33 -21z"/>
<path d="M1628 648 c-4 -116 4 -197 22 -208 22 -14 57 -12 74 5 13 14 16 13
24 -1 6 -10 16 -15 26 -11 14 5 16 27 16 152 l0 146 -27 -3 -28 -3 0 -117 c-1
-123 -10 -153 -39 -129 -10 9 -14 37 -14 109 -1 152 1 142 -26 142 -24 0 -25
-3 -28 -82z"/>
</g>
</svg>
